%TF.GenerationSoftware,KiCad,Pcbnew,(6.0.8-1)-1*%
%TF.CreationDate,2022-10-25T23:49:06-07:00*%
%TF.ProjectId,bottom,626f7474-6f6d-42e6-9b69-6361645f7063,rev?*%
%TF.SameCoordinates,Original*%
%TF.FileFunction,Profile,NP*%
%FSLAX46Y46*%
G04 Gerber Fmt 4.6, Leading zero omitted, Abs format (unit mm)*
G04 Created by KiCad (PCBNEW (6.0.8-1)-1) date 2022-10-25 23:49:06*
%MOMM*%
%LPD*%
G01*
G04 APERTURE LIST*
%TA.AperFunction,Profile*%
%ADD10C,0.100000*%
%TD*%
G04 APERTURE END LIST*
D10*
X70800000Y-25720000D02*
X63800000Y-25720000D01*
X70800000Y-32720000D02*
X70800000Y-25720000D01*
X69200000Y-32720000D02*
X70800000Y-32720000D01*
X68400000Y-32720000D02*
X69200000Y-32720000D01*
X68400000Y-33520000D02*
X68400000Y-32720000D01*
X69200000Y-33520000D02*
X68400000Y-33520000D01*
X69200000Y-36920000D02*
X69200000Y-33520000D01*
X68400000Y-36920000D02*
X69200000Y-36920000D01*
X68400000Y-37720000D02*
X68400000Y-36920000D01*
X69200000Y-37720000D02*
X68400000Y-37720000D01*
X70800000Y-37720000D02*
X69200000Y-37720000D01*
X70800000Y-42720000D02*
X70800000Y-37720000D01*
X69200000Y-42720000D02*
X70800000Y-42720000D01*
X68400000Y-42720000D02*
X69200000Y-42720000D01*
X68400000Y-43520000D02*
X68400000Y-42720000D01*
X69200000Y-43520000D02*
X68400000Y-43520000D01*
X69200000Y-47920000D02*
X69200000Y-43520000D01*
X68400000Y-47920000D02*
X69200000Y-47920000D01*
X68400000Y-48720000D02*
X68400000Y-47920000D01*
X69200000Y-48720000D02*
X68400000Y-48720000D01*
X70800000Y-48720000D02*
X69200000Y-48720000D01*
X70800000Y-53720000D02*
X70800000Y-48720000D01*
X69200000Y-53720000D02*
X70800000Y-53720000D01*
X68400000Y-53720000D02*
X69200000Y-53720000D01*
X68400000Y-54520000D02*
X68400000Y-53720000D01*
X69200000Y-54520000D02*
X68400000Y-54520000D01*
X69200000Y-57920000D02*
X69200000Y-54520000D01*
X68400000Y-57920000D02*
X69200000Y-57920000D01*
X68400000Y-58720000D02*
X68400000Y-57920000D01*
X69200000Y-58720000D02*
X68400000Y-58720000D01*
X70800000Y-58720000D02*
X69200000Y-58720000D01*
X70800000Y-65720000D02*
X70800000Y-58720000D01*
X63800000Y-65720000D02*
X70800000Y-65720000D01*
X63800000Y-64120000D02*
X63800000Y-65720000D01*
X63800000Y-63320000D02*
X63800000Y-64120000D01*
X63000000Y-63320000D02*
X63800000Y-63320000D01*
X63000000Y-64120000D02*
X63000000Y-63320000D01*
X59600000Y-64120000D02*
X63000000Y-64120000D01*
X59600000Y-63320000D02*
X59600000Y-64120000D01*
X58800000Y-63320000D02*
X59600000Y-63320000D01*
X58800000Y-64120000D02*
X58800000Y-63320000D01*
X58800000Y-65720000D02*
X58800000Y-64120000D01*
X53800000Y-65720000D02*
X58800000Y-65720000D01*
X53800000Y-64120000D02*
X53800000Y-65720000D01*
X53800000Y-63320000D02*
X53800000Y-64120000D01*
X53000000Y-63320000D02*
X53800000Y-63320000D01*
X53000000Y-64120000D02*
X53000000Y-63320000D01*
X48600000Y-64120000D02*
X53000000Y-64120000D01*
X48600000Y-63320000D02*
X48600000Y-64120000D01*
X47800000Y-63320000D02*
X48600000Y-63320000D01*
X47800000Y-64120000D02*
X47800000Y-63320000D01*
X47800000Y-65720000D02*
X47800000Y-64120000D01*
X42800000Y-65720000D02*
X47800000Y-65720000D01*
X42800000Y-64120000D02*
X42800000Y-65720000D01*
X42800000Y-63320000D02*
X42800000Y-64120000D01*
X42000000Y-63320000D02*
X42800000Y-63320000D01*
X42000000Y-64120000D02*
X42000000Y-63320000D01*
X38600000Y-64120000D02*
X42000000Y-64120000D01*
X38600000Y-63320000D02*
X38600000Y-64120000D01*
X37800000Y-63320000D02*
X38600000Y-63320000D01*
X37800000Y-64120000D02*
X37800000Y-63320000D01*
X37800000Y-65720000D02*
X37800000Y-64120000D01*
X30800000Y-65720000D02*
X37800000Y-65720000D01*
X30800000Y-58720000D02*
X30800000Y-65720000D01*
X32400000Y-58720000D02*
X30800000Y-58720000D01*
X33200000Y-58720000D02*
X32400000Y-58720000D01*
X33200000Y-57920000D02*
X33200000Y-58720000D01*
X32400000Y-57920000D02*
X33200000Y-57920000D01*
X32400000Y-54520000D02*
X32400000Y-57920000D01*
X33200000Y-54520000D02*
X32400000Y-54520000D01*
X33200000Y-53720000D02*
X33200000Y-54520000D01*
X32400000Y-53720000D02*
X33200000Y-53720000D01*
X30800000Y-53720000D02*
X32400000Y-53720000D01*
X30800000Y-48720000D02*
X30800000Y-53720000D01*
X32400000Y-48720000D02*
X30800000Y-48720000D01*
X33200000Y-48720000D02*
X32400000Y-48720000D01*
X33200000Y-47920000D02*
X33200000Y-48720000D01*
X32400000Y-47920000D02*
X33200000Y-47920000D01*
X32400000Y-43520000D02*
X32400000Y-47920000D01*
X33200000Y-43520000D02*
X32400000Y-43520000D01*
X33200000Y-42720000D02*
X33200000Y-43520000D01*
X32400000Y-42720000D02*
X33200000Y-42720000D01*
X30800000Y-42720000D02*
X32400000Y-42720000D01*
X30800000Y-37720000D02*
X30800000Y-42720000D01*
X32400000Y-37720000D02*
X30800000Y-37720000D01*
X33200000Y-37720000D02*
X32400000Y-37720000D01*
X33200000Y-36920000D02*
X33200000Y-37720000D01*
X32400000Y-36920000D02*
X33200000Y-36920000D01*
X32400000Y-33520000D02*
X32400000Y-36920000D01*
X33200000Y-33520000D02*
X32400000Y-33520000D01*
X33200000Y-32720000D02*
X33200000Y-33520000D01*
X32400000Y-32720000D02*
X33200000Y-32720000D01*
X30800000Y-32720000D02*
X32400000Y-32720000D01*
X30800000Y-25720000D02*
X30800000Y-32720000D01*
X37800000Y-25720000D02*
X30800000Y-25720000D01*
X37800000Y-27320000D02*
X37800000Y-25720000D01*
X37800000Y-28120000D02*
X37800000Y-27320000D01*
X38600000Y-28120000D02*
X37800000Y-28120000D01*
X38600000Y-27320000D02*
X38600000Y-28120000D01*
X42000000Y-27320000D02*
X38600000Y-27320000D01*
X42000000Y-28120000D02*
X42000000Y-27320000D01*
X42800000Y-28120000D02*
X42000000Y-28120000D01*
X42800000Y-27320000D02*
X42800000Y-28120000D01*
X42800000Y-25720000D02*
X42800000Y-27320000D01*
X47800000Y-25720000D02*
X42800000Y-25720000D01*
X47800000Y-27320000D02*
X47800000Y-25720000D01*
X47800000Y-28120000D02*
X47800000Y-27320000D01*
X48600000Y-28120000D02*
X47800000Y-28120000D01*
X48600000Y-27320000D02*
X48600000Y-28120000D01*
X53000000Y-27320000D02*
X48600000Y-27320000D01*
X53000000Y-28120000D02*
X53000000Y-27320000D01*
X53800000Y-28120000D02*
X53000000Y-28120000D01*
X53800000Y-27320000D02*
X53800000Y-28120000D01*
X53800000Y-25720000D02*
X53800000Y-27320000D01*
X58800000Y-25720000D02*
X53800000Y-25720000D01*
X58800000Y-27320000D02*
X58800000Y-25720000D01*
X58800000Y-28120000D02*
X58800000Y-27320000D01*
X59600000Y-28120000D02*
X58800000Y-28120000D01*
X59600000Y-27320000D02*
X59600000Y-28120000D01*
X63000000Y-27320000D02*
X59600000Y-27320000D01*
X63000000Y-28120000D02*
X63000000Y-27320000D01*
X63800000Y-28120000D02*
X63000000Y-28120000D01*
X63800000Y-27320000D02*
X63800000Y-28120000D01*
X63800000Y-25720000D02*
X63800000Y-27320000D01*
M02*
